<svg width="49" height="16" viewBox="0 0 49 16" fill="none" xmlns="http://www.w3.org/2000/svg">
<path d="M16.7451 3.2001C16.7451 2.3201 16.0251 1.6001 15.1451 1.6001H2.34512C1.46512 1.6001 0.745117 2.3201 0.745117 3.2001V12.8001C0.745117 13.6801 1.46512 14.4001 2.34512 14.4001H15.1451C16.0251 14.4001 16.7451 13.6801 16.7451 12.8001V3.2001ZM15.1451 3.2001L8.74512 7.2001L2.34512 3.2001H15.1451ZM15.1451 12.8001H2.34512V4.8001L8.74512 8.8001L15.1451 4.8001V12.8001Z" fill="white"/>
<path d="M31.8562 11.1111C30.7896 11.1111 29.634 10.9333 28.6562 10.5778C28.5673 10.5778 28.4785 10.5778 28.3896 10.5778C28.1229 10.5778 27.9451 10.6667 27.7673 10.8444L25.8118 12.8C23.3229 11.4667 21.1896 9.42222 19.9451 6.93333L21.9007 4.97778C22.1673 4.71111 22.2562 4.35556 22.0785 4.08889C21.8118 3.11111 21.634 1.95556 21.634 0.888889C21.634 0.444444 21.1896 0 20.7451 0H17.634C17.1896 0 16.7451 0.444444 16.7451 0.888889C16.7451 9.24444 23.5007 16 31.8562 16C32.3007 16 32.7451 15.5556 32.7451 15.1111V12C32.7451 11.5556 32.3007 11.1111 31.8562 11.1111ZM18.5229 1.77778H19.8562C19.9451 2.57778 20.1229 3.37778 20.3007 4.08889L19.234 5.15556C18.8785 4.08889 18.6118 2.93333 18.5229 1.77778ZM30.9673 14.2222C29.8118 14.1333 28.6562 13.8667 27.5896 13.5111L28.6562 12.4444C29.3673 12.6222 30.1673 12.8 30.9673 12.8V14.2222Z" fill="white"/>
<path d="M41 3.6C41.5683 3.6 42.1134 3.81071 42.5152 4.18579C42.9171 4.56086 43.1429 5.06957 43.1429 5.6C43.1429 5.86264 43.0874 6.12272 42.9797 6.36537C42.8721 6.60802 42.7142 6.8285 42.5152 7.01421C42.3162 7.19993 42.08 7.34725 41.82 7.44776C41.5601 7.54827 41.2814 7.6 41 7.6C40.4317 7.6 39.8866 7.38929 39.4848 7.01421C39.0829 6.63914 38.8571 6.13043 38.8571 5.6C38.8571 5.06957 39.0829 4.56086 39.4848 4.18579C39.8866 3.81071 40.4317 3.6 41 3.6ZM41 0C42.5913 0 44.1174 0.589998 45.2426 1.6402C46.3679 2.69041 47 4.11479 47 5.6C47 9.8 41 16 41 16C41 16 35 9.8 35 5.6C35 4.11479 35.6321 2.69041 36.7574 1.6402C37.8826 0.589998 39.4087 0 41 0V0ZM41 1.6C39.8634 1.6 38.7733 2.02143 37.9695 2.77157C37.1658 3.52172 36.7143 4.53913 36.7143 5.6C36.7143 6.4 36.7143 8 41 13.368C45.2857 8 45.2857 6.4 45.2857 5.6C45.2857 4.53913 44.8342 3.52172 44.0305 2.77157C43.2267 2.02143 42.1366 1.6 41 1.6V1.6Z" fill="white"/>
</svg>
