<svg width="80" height="16" viewBox="0 0 80 16" fill="none" xmlns="http://www.w3.org/2000/svg">
<path d="M16 8C16 3.58172 12.4183 0 8 0C3.58172 0 0 3.58172 0 8C0 11.993 2.92547 15.3027 6.75 15.9028V10.3125H4.71875V8H6.75V6.2375C6.75 4.2325 7.94438 3.125 9.77172 3.125C10.6467 3.125 11.5625 3.28125 11.5625 3.28125V5.25H10.5538C9.56 5.25 9.25 5.86672 9.25 6.5V8H11.4688L11.1141 10.3125H9.25V15.9028C13.0745 15.3027 16 11.993 16 8Z" fill="white"/>
<path d="M24 1.44062C26.1375 1.44062 26.3906 1.45 27.2313 1.4875C28.0125 1.52187 28.4344 1.65313 28.7156 1.7625C29.0875 1.90625 29.3563 2.08125 29.6344 2.35938C29.9156 2.64063 30.0875 2.90625 30.2313 3.27813C30.3406 3.55938 30.4719 3.98437 30.5063 4.7625C30.5438 5.60625 30.5531 5.85938 30.5531 7.99375C30.5531 10.1313 30.5438 10.3844 30.5063 11.225C30.4719 12.0063 30.3406 12.4281 30.2313 12.7094C30.0875 13.0813 29.9125 13.35 29.6344 13.6281C29.3531 13.9094 29.0875 14.0813 28.7156 14.225C28.4344 14.3344 28.0094 14.4656 27.2313 14.5C26.3875 14.5375 26.1344 14.5469 24 14.5469C21.8625 14.5469 21.6094 14.5375 20.7688 14.5C19.9875 14.4656 19.5656 14.3344 19.2844 14.225C18.9125 14.0813 18.6438 13.9063 18.3656 13.6281C18.0844 13.3469 17.9125 13.0813 17.7688 12.7094C17.6594 12.4281 17.5281 12.0031 17.4938 11.225C17.4563 10.3813 17.4469 10.1281 17.4469 7.99375C17.4469 5.85625 17.4563 5.60312 17.4938 4.7625C17.5281 3.98125 17.6594 3.55938 17.7688 3.27813C17.9125 2.90625 18.0875 2.6375 18.3656 2.35938C18.6469 2.07813 18.9125 1.90625 19.2844 1.7625C19.5656 1.65313 19.9906 1.52187 20.7688 1.4875C21.6094 1.45 21.8625 1.44062 24 1.44062ZM24 0C21.8281 0 21.5563 0.009375 20.7031 0.046875C19.8531 0.084375 19.2688 0.221875 18.7625 0.41875C18.2344 0.625 17.7875 0.896875 17.3438 1.34375C16.8969 1.7875 16.625 2.23438 16.4188 2.75938C16.2219 3.26875 16.0844 3.85 16.0469 4.7C16.0094 5.55625 16 5.82813 16 8C16 10.1719 16.0094 10.4438 16.0469 11.2969C16.0844 12.1469 16.2219 12.7313 16.4188 13.2375C16.625 13.7656 16.8969 14.2125 17.3438 14.6563C17.7875 15.1 18.2344 15.375 18.7594 15.5781C19.2688 15.775 19.85 15.9125 20.7 15.95C21.5531 15.9875 21.825 15.9969 23.9969 15.9969C26.1688 15.9969 26.4406 15.9875 27.2938 15.95C28.1438 15.9125 28.7281 15.775 29.2344 15.5781C29.7594 15.375 30.2063 15.1 30.65 14.6563C31.0938 14.2125 31.3688 13.7656 31.5719 13.2406C31.7688 12.7313 31.9063 12.15 31.9438 11.3C31.9813 10.4469 31.9906 10.175 31.9906 8.00313C31.9906 5.83125 31.9813 5.55938 31.9438 4.70625C31.9063 3.85625 31.7688 3.27188 31.5719 2.76563C31.375 2.23438 31.1031 1.7875 30.6563 1.34375C30.2125 0.9 29.7656 0.625 29.2406 0.421875C28.7313 0.225 28.15 0.0875 27.3 0.05C26.4438 0.009375 26.1719 0 24 0Z" fill="white"/>
<path d="M24 3.89062C21.7313 3.89062 19.8906 5.73125 19.8906 8C19.8906 10.2688 21.7313 12.1094 24 12.1094C26.2688 12.1094 28.1094 10.2688 28.1094 8C28.1094 5.73125 26.2688 3.89062 24 3.89062ZM24 10.6656C22.5281 10.6656 21.3344 9.47188 21.3344 8C21.3344 6.52813 22.5281 5.33437 24 5.33437C25.4719 5.33437 26.6656 6.52813 26.6656 8C26.6656 9.47188 25.4719 10.6656 24 10.6656Z" fill="white"/>
<path d="M29.2312 3.72805C29.2312 4.2593 28.8 4.68743 28.2719 4.68743C27.7406 4.68743 27.3125 4.25618 27.3125 3.72805C27.3125 3.1968 27.7438 2.76868 28.2719 2.76868C28.8 2.76868 29.2312 3.19993 29.2312 3.72805Z" fill="white"/>
<path d="M45.5447 2.77034C44.5249 2.30242 43.4313 1.95768 42.2879 1.76023C42.2671 1.75642 42.2463 1.76594 42.2356 1.78499C42.0949 2.03513 41.9392 2.36146 41.8301 2.61796C40.6003 2.43385 39.3768 2.43385 38.1722 2.61796C38.0631 2.35576 37.9017 2.03513 37.7604 1.78499C37.7497 1.76658 37.7289 1.75705 37.708 1.76023C36.5653 1.95705 35.4717 2.30179 34.4513 2.77034C34.4425 2.77415 34.4349 2.7805 34.4299 2.78875C32.3556 5.88766 31.7874 8.9104 32.0661 11.8957C32.0674 11.9103 32.0756 11.9242 32.0869 11.9331C33.4555 12.9381 34.7811 13.5483 36.0822 13.9527C36.103 13.9591 36.1251 13.9514 36.1383 13.9343C36.4461 13.514 36.7204 13.0708 36.9557 12.6048C36.9695 12.5775 36.9563 12.5451 36.9279 12.5344C36.4928 12.3693 36.0784 12.168 35.6798 11.9395C35.6483 11.9211 35.6458 11.876 35.6748 11.8544C35.7586 11.7915 35.8425 11.7261 35.9226 11.6601C35.9371 11.648 35.9573 11.6455 35.9744 11.6531C38.5929 12.8486 41.4277 12.8486 44.0153 11.6531C44.0323 11.6449 44.0525 11.6474 44.0677 11.6595C44.1478 11.7255 44.2316 11.7915 44.3161 11.8544C44.3451 11.876 44.3433 11.9211 44.3117 11.9395C43.9131 12.1725 43.4988 12.3693 43.063 12.5337C43.0346 12.5445 43.022 12.5775 43.0359 12.6048C43.2762 13.0702 43.5505 13.5134 43.8526 13.9337C43.8652 13.9514 43.8879 13.9591 43.9087 13.9527C45.2161 13.5483 46.5417 12.9381 47.9103 11.9331C47.9223 11.9242 47.9298 11.9109 47.9311 11.8963C48.2647 8.445 47.3723 5.44705 45.5655 2.78938C45.5611 2.7805 45.5535 2.77415 45.5447 2.77034ZM37.3467 10.0779C36.5583 10.0779 35.9088 9.35418 35.9088 8.46533C35.9088 7.57647 36.5457 6.85271 37.3467 6.85271C38.1539 6.85271 38.7972 7.58283 38.7846 8.46533C38.7846 9.35418 38.1476 10.0779 37.3467 10.0779ZM42.6632 10.0779C41.8748 10.0779 41.2253 9.35418 41.2253 8.46533C41.2253 7.57647 41.8622 6.85271 42.6632 6.85271C43.4704 6.85271 44.1137 7.58283 44.1011 8.46533C44.1011 9.35418 43.4704 10.0779 42.6632 10.0779Z" fill="white"/>
<path fill-rule="evenodd" clip-rule="evenodd" d="M64 8C64 12.4183 60.4183 16 56 16C51.5817 16 48 12.4183 48 8C48 3.58172 51.5817 0 56 0C60.4183 0 64 3.58172 64 8ZM56.2867 5.90595C55.5086 6.2296 53.9534 6.89946 51.6213 7.91555C51.2426 8.06615 51.0442 8.21348 51.0261 8.35754C50.9956 8.601 51.3005 8.69687 51.7157 8.82742C51.7721 8.84517 51.8306 8.86357 51.8906 8.88307C52.2991 9.01585 52.8486 9.17118 53.1342 9.17735C53.3933 9.18295 53.6825 9.07613 54.0018 8.85689C56.1808 7.386 57.3056 6.64254 57.3762 6.62651C57.426 6.61521 57.4951 6.60099 57.5418 6.64256C57.5886 6.68414 57.584 6.76288 57.5791 6.784C57.5489 6.91276 56.3521 8.02539 55.7328 8.60118C55.5397 8.78069 55.4027 8.90801 55.3747 8.93709C55.312 9.00223 55.2481 9.06385 55.1867 9.12307C54.8072 9.48889 54.5226 9.76322 55.2024 10.2112C55.5291 10.4265 55.7905 10.6045 56.0513 10.7821C56.3361 10.9761 56.6202 11.1695 56.9877 11.4104C57.0814 11.4718 57.1708 11.5356 57.2579 11.5977C57.5894 11.834 57.8872 12.0463 58.2551 12.0124C58.4688 11.9928 58.6896 11.7917 58.8018 11.1922C59.0668 9.77543 59.5878 6.70564 59.7081 5.44065C59.7187 5.32982 59.7054 5.18798 59.6948 5.12572C59.6841 5.06345 59.6618 4.97474 59.5809 4.90907C59.4851 4.83129 59.3371 4.81489 59.2709 4.81606C58.97 4.82136 58.5084 4.98188 56.2867 5.90595Z" fill="white"/>
<g clip-path="url(#clip0_1207_25)">
<path fill-rule="evenodd" clip-rule="evenodd" d="M72.0002 0.333374C70.101 0.334359 68.2641 1.00701 66.8179 2.23106C65.3717 3.4551 64.4106 5.15071 64.1064 7.01471C63.8021 8.8787 64.1746 10.7895 65.1573 12.4055C66.1399 14.0215 67.6686 15.2372 69.47 15.8354C69.8674 15.9091 70.0171 15.6628 70.0171 15.4534C70.0171 15.2439 70.0091 14.6367 70.0065 13.9729C67.7809 14.4536 67.3107 13.0337 67.3107 13.0337C66.9477 12.1117 66.4231 11.8693 66.4231 11.8693C65.6972 11.3767 66.4774 11.3859 66.4774 11.3859C67.2815 11.4425 67.7041 12.2065 67.7041 12.2065C68.4168 13.4223 69.5759 13.0706 70.0316 12.8651C70.1032 12.3501 70.3112 11.9997 70.5403 11.8008C68.7626 11.6006 66.8947 10.9183 66.8947 7.87032C66.8837 7.07985 67.1787 6.31541 67.7187 5.73516C67.6366 5.53495 67.3623 4.7262 67.7968 3.62766C67.7968 3.62766 68.4685 3.41428 69.9972 4.443C71.3085 4.08646 72.6919 4.08646 74.0032 4.443C75.5306 3.41428 76.2009 3.62766 76.2009 3.62766C76.6367 4.72356 76.3625 5.53231 76.2804 5.73516C76.8221 6.3155 77.1177 7.08127 77.1057 7.87296C77.1057 10.9275 75.2338 11.6006 73.4534 11.7969C73.7395 12.0445 73.9952 12.5279 73.9952 13.2708C73.9952 14.3351 73.9859 15.1913 73.9859 15.4534C73.9859 15.6654 74.1303 15.9131 74.5357 15.8354C76.3373 15.2371 77.8661 14.0212 78.8488 12.4049C79.8314 10.7887 80.2037 8.87757 79.8991 7.01341C79.5945 5.14924 78.6329 3.45361 77.1862 2.22978C75.7396 1.00594 73.9022 0.333735 72.0028 0.333374H72.0002Z" fill="white"/>
<path d="M67.0296 11.7547C67.0124 11.7942 66.9488 11.806 66.8972 11.7784C66.8455 11.7507 66.8071 11.6993 66.8256 11.6585C66.8442 11.6177 66.9064 11.6071 66.9581 11.6348C67.0098 11.6625 67.0495 11.7152 67.0296 11.7547Z" fill="white"/>
<path d="M67.3542 12.1143C67.3268 12.128 67.2954 12.1319 67.2654 12.1252C67.2355 12.1184 67.2088 12.1015 67.1899 12.0774C67.1383 12.0221 67.1277 11.9457 67.1674 11.9115C67.2072 11.8772 67.2787 11.893 67.3304 11.9483C67.382 12.0037 67.3939 12.0801 67.3542 12.1143Z" fill="white"/>
<path d="M67.6695 12.5714C67.6205 12.6056 67.537 12.5714 67.4906 12.5029C67.4778 12.4906 67.4676 12.4758 67.4607 12.4595C67.4537 12.4433 67.4501 12.4257 67.4501 12.408C67.4501 12.3903 67.4537 12.3728 67.4607 12.3565C67.4676 12.3402 67.4778 12.3255 67.4906 12.3132C67.5397 12.2803 67.6231 12.3132 67.6695 12.3804C67.7159 12.4475 67.7172 12.5371 67.6695 12.5714V12.5714Z" fill="white"/>
<path d="M68.0974 13.0139C68.0537 13.0626 67.9649 13.0494 67.892 12.9836C67.8192 12.9177 67.802 12.8281 67.8457 12.7807C67.8894 12.7333 67.9781 12.7465 68.0537 12.811C68.1292 12.8756 68.1437 12.9665 68.0974 13.0139V13.0139Z" fill="white"/>
<path d="M68.6974 13.272C68.6776 13.3339 68.5875 13.3616 68.4974 13.3352C68.4073 13.3089 68.3477 13.2351 68.3649 13.1719C68.3822 13.1087 68.4736 13.0797 68.565 13.1087C68.6564 13.1377 68.7147 13.2075 68.6974 13.272Z" fill="white"/>
<path d="M69.3519 13.3169C69.3519 13.3814 69.2777 13.4367 69.1823 13.438C69.0869 13.4394 69.0088 13.3867 69.0088 13.3221C69.0088 13.2576 69.083 13.2023 69.1784 13.201C69.2737 13.1996 69.3519 13.251 69.3519 13.3169Z" fill="white"/>
<path d="M69.9613 13.2154C69.9732 13.28 69.907 13.3472 69.8116 13.363C69.7162 13.3788 69.6327 13.3406 69.6208 13.2774C69.6089 13.2141 69.6778 13.1456 69.7705 13.1285C69.8632 13.1114 69.9494 13.1509 69.9613 13.2154Z" fill="white"/>
</g>
<defs>
<clipPath id="clip0_1207_25">
<rect width="16" height="16" fill="white" transform="translate(64)"/>
</clipPath>
</defs>
</svg>
